# xmcd
#
# Track frame offsets:
# 150
# 20622
# 34765
# 56662
# 70260
# 90632
# 115575
# 141030
# 160022
# 189455
# 206722
# 236422
# 248207
# 267925
#
# Disc length: 3914 seconds
#
#
# Revision: 0
# Processed by: cddbd v1.4PL0 Copyright (c) Steve Scherf et al.
# Submitted via: FreeRIP 2.00 
#
DISCID=bd0f480e
DTITLE=Mojo Buford - Still Blowin' Strong
DYEAR=1996
DGENRE=Blues
TTITLE0=Devil's Love
TTITLE1=Married Woman Blues
TTITLE2=Lonesome Highway
TTITLE3=Harp Blast
TTITLE4=Don't Say I Don't Love You
TTITLE5=Walkin' Down Beale Street
TTITLE6=Apple On A Tree
TTITLE7=Overplayed and Underpaid
TTITLE8=I Found Me A Bird Nest
TTITLE9=That Ain't The Way You Do It
TTITLE10=In My Younger Days
TTITLE11=Hand Me That Piano
TTITLE12=You Know I Love You
TTITLE13=Lena
EXTD=
EXTT0=
EXTT1=
EXTT2=
EXTT3=
EXTT4=
EXTT5=
EXTT6=
EXTT7=
EXTT8=
EXTT9=
EXTT10=
EXTT11=
EXTT12=
EXTT13=
PLAYORDER=
